<svg data-v-423bf9ae="" xmlns="http://www.w3.org/2000/svg" viewBox="0 0 302.9144427274279 60" class="font"><!----><!----><!----><g data-v-423bf9ae="" id="9a624bf7-9c36-499f-8987-caa04ec3aeb8" fill="black" transform="matrix(6.335797075835233,0,0,6.335797075835233,-3.104537860665573,-34.53009237800747)"><path d="M5.60 10.44L5.60 10.44L5.60 10.44Q5.60 9.21 5.24 8.54L5.24 8.54L5.24 8.54Q4.89 7.87 4.23 7.87L4.23 7.87L4.23 7.87Q3.57 7.87 3.23 8.54L3.23 8.54L3.23 8.54Q2.88 9.21 2.88 10.44L2.88 10.44L2.88 10.44Q2.88 11.68 3.23 12.36L3.23 12.36L3.23 12.36Q3.57 13.03 4.23 13.03L4.23 13.03L4.23 13.03Q4.89 13.03 5.24 12.36L5.24 12.36L5.24 12.36Q5.60 11.68 5.60 10.44ZM7.99 10.44L7.99 10.44L7.99 10.44Q7.99 11.52 7.71 12.36L7.71 12.36L7.71 12.36Q7.43 13.20 6.94 13.77L6.94 13.77L6.94 13.77Q6.44 14.34 5.75 14.63L5.75 14.63L5.75 14.63Q5.05 14.92 4.24 14.92L4.24 14.92L4.24 14.92Q3.42 14.92 2.72 14.63L2.72 14.63L2.72 14.63Q2.03 14.34 1.53 13.77L1.53 13.77L1.53 13.77Q1.04 13.20 0.76 12.36L0.76 12.36L0.76 12.36Q0.49 11.52 0.49 10.44L0.49 10.44L0.49 10.44Q0.49 9.37 0.76 8.53L0.76 8.53L0.76 8.53Q1.04 7.70 1.53 7.13L1.53 7.13L1.53 7.13Q2.03 6.57 2.72 6.27L2.72 6.27L2.72 6.27Q3.42 5.98 4.24 5.98L4.24 5.98L4.24 5.98Q5.05 5.98 5.75 6.27L5.75 6.27L5.75 6.27Q6.44 6.57 6.94 7.13L6.94 7.13L6.94 7.13Q7.43 7.70 7.71 8.53L7.71 8.53L7.71 8.53Q7.99 9.37 7.99 10.44ZM10.71 11.20L8.83 9.00L8.83 9.00Q8.95 8.47 9.28 8.13L9.28 8.13L9.28 8.13Q9.60 7.80 10.09 7.80L10.09 7.80L10.09 7.80Q10.56 7.80 10.81 8.02L10.81 8.02L10.81 8.02Q11.06 8.25 11.37 8.65L11.37 8.65L12.26 9.83L13.76 7.80L13.76 7.80Q14.53 7.80 14.98 8.07L14.98 8.07L14.98 8.07Q15.43 8.34 15.43 8.81L15.43 8.81L15.43 8.81Q15.43 8.99 15.38 9.14L15.38 9.14L15.38 9.14Q15.33 9.28 15.23 9.44L15.23 9.44L15.23 9.44Q15.13 9.59 14.98 9.79L14.98 9.79L14.98 9.79Q14.83 9.98 14.62 10.25L14.62 10.25L13.69 11.28L15.53 13.71L15.53 13.71Q15.46 14.24 15.11 14.55L15.11 14.55L15.11 14.55Q14.76 14.85 14.27 14.85L14.27 14.85L14.27 14.85Q13.73 14.84 13.42 14.55L13.42 14.55L13.42 14.55Q13.10 14.25 12.81 13.83L12.81 13.83L12.05 12.75L10.63 14.81L10.63 14.81Q10.56 14.81 10.47 14.82L10.47 14.82L10.47 14.82Q10.39 14.83 10.33 14.83L10.33 14.83L10.33 14.83Q9.62 14.83 9.25 14.53L9.25 14.53L9.25 14.53Q8.88 14.24 8.88 13.80L8.88 13.80L8.88 13.80Q8.88 13.47 9.04 13.21L9.04 13.21L9.04 13.21Q9.20 12.95 9.59 12.50L9.59 12.50L10.71 11.20ZM21.08 14.52L21.08 14.52L21.08 14.52Q20.89 14.67 20.51 14.77L20.51 14.77L20.51 14.77Q20.13 14.87 19.66 14.87L19.66 14.87L19.66 14.87Q19.11 14.87 18.71 14.73L18.71 14.73L18.71 14.73Q18.31 14.59 18.16 14.28L18.16 14.28L18.16 14.28Q18.03 14.04 17.86 13.62L17.86 13.62L17.86 13.62Q17.68 13.19 17.49 12.66L17.49 12.66L17.49 12.66Q17.29 12.14 17.08 11.54L17.08 11.54L17.08 11.54Q16.87 10.93 16.68 10.35L16.68 10.35L16.68 10.35Q16.49 9.76 16.34 9.21L16.34 9.21L16.34 9.21Q16.18 8.67 16.09 8.25L16.09 8.25L16.09 8.25Q16.28 8.05 16.61 7.90L16.61 7.90L16.61 7.90Q16.94 7.76 17.33 7.76L17.33 7.76L17.33 7.76Q17.82 7.76 18.14 7.96L18.14 7.96L18.14 7.96Q18.45 8.16 18.61 8.72L18.61 8.72L19.15 10.86L19.15 10.86Q19.31 11.49 19.45 12.01L19.45 12.01L19.45 12.01Q19.59 12.52 19.66 12.80L19.66 12.80L19.73 12.80L19.73 12.80Q19.99 11.76 20.29 10.50L20.29 10.50L20.29 10.50Q20.58 9.24 20.82 8.02L20.82 8.02L20.82 8.02Q21.06 7.90 21.36 7.83L21.36 7.83L21.36 7.83Q21.66 7.76 21.94 7.76L21.94 7.76L21.94 7.76Q22.43 7.76 22.76 7.97L22.76 7.97L22.76 7.97Q23.10 8.18 23.10 8.69L23.10 8.69L23.10 8.69Q23.10 8.92 23.00 9.35L23.00 9.35L23.00 9.35Q22.89 9.77 22.73 10.31L22.73 10.31L22.73 10.31Q22.57 10.85 22.35 11.45L22.35 11.45L22.35 11.45Q22.13 12.05 21.91 12.63L21.91 12.63L21.91 12.63Q21.69 13.20 21.47 13.70L21.47 13.70L21.47 13.70Q21.25 14.20 21.08 14.52ZM27.08 13.19L27.08 13.19L27.08 13.19Q27.31 13.19 27.60 13.14L27.60 13.14L27.60 13.14Q27.89 13.09 28.03 13.01L28.03 13.01L28.03 11.89L27.02 11.97L27.02 11.97Q26.63 12.00 26.38 12.14L26.38 12.14L26.38 12.14Q26.12 12.28 26.12 12.56L26.12 12.56L26.12 12.56Q26.12 12.84 26.34 13.01L26.34 13.01L26.34 13.01Q26.56 13.19 27.08 13.19ZM26.96 7.69L26.96 7.69L26.96 7.69Q27.72 7.69 28.34 7.84L28.34 7.84L28.34 7.84Q28.97 7.99 29.41 8.31L29.41 8.31L29.41 8.31Q29.85 8.62 30.09 9.11L30.09 9.11L30.09 9.11Q30.32 9.59 30.32 10.25L30.32 10.25L30.32 13.38L30.32 13.38Q30.32 13.75 30.12 13.98L30.12 13.98L30.12 13.98Q29.92 14.21 29.64 14.38L29.64 14.38L29.64 14.38Q28.73 14.92 27.08 14.92L27.08 14.92L27.08 14.92Q26.33 14.92 25.74 14.78L25.74 14.78L25.74 14.78Q25.14 14.64 24.72 14.36L24.72 14.36L24.72 14.36Q24.29 14.08 24.06 13.65L24.06 13.65L24.06 13.65Q23.83 13.22 23.83 12.64L23.83 12.64L23.83 12.64Q23.83 11.68 24.40 11.16L24.40 11.16L24.40 11.16Q24.98 10.64 26.18 10.51L26.18 10.51L28.01 10.32L28.01 10.22L28.01 10.22Q28.01 9.81 27.66 9.64L27.66 9.64L27.66 9.64Q27.30 9.46 26.63 9.46L26.63 9.46L26.63 9.46Q26.10 9.46 25.59 9.58L25.59 9.58L25.59 9.58Q25.09 9.69 24.68 9.86L24.68 9.86L24.68 9.86Q24.50 9.73 24.37 9.47L24.37 9.47L24.37 9.47Q24.25 9.21 24.25 8.93L24.25 8.93L24.25 8.93Q24.25 8.57 24.42 8.35L24.42 8.35L24.42 8.35Q24.60 8.13 24.96 7.98L24.96 7.98L24.96 7.98Q25.37 7.83 25.92 7.76L25.92 7.76L25.92 7.76Q26.47 7.69 26.96 7.69ZM31.78 12.00L31.78 7.99L31.78 7.99Q31.92 7.95 32.22 7.91L32.22 7.91L32.22 7.91Q32.52 7.87 32.84 7.87L32.84 7.87L32.84 7.87Q33.15 7.87 33.40 7.91L33.40 7.91L33.40 7.91Q33.64 7.95 33.81 8.08L33.81 8.08L33.81 8.08Q33.98 8.20 34.07 8.42L34.07 8.42L34.07 8.42Q34.16 8.64 34.16 8.99L34.16 8.99L34.16 12.00L34.16 12.00Q34.16 12.57 34.44 12.82L34.44 12.82L34.44 12.82Q34.72 13.06 35.25 13.06L35.25 13.06L35.25 13.06Q35.57 13.06 35.78 13.01L35.78 13.01L35.78 13.01Q35.98 12.95 36.09 12.89L36.09 12.89L36.09 7.99L36.09 7.99Q36.23 7.95 36.53 7.91L36.53 7.91L36.53 7.91Q36.83 7.87 37.16 7.87L37.16 7.87L37.16 7.87Q37.46 7.87 37.71 7.91L37.71 7.91L37.71 7.91Q37.95 7.95 38.12 8.08L38.12 8.08L38.12 8.08Q38.29 8.20 38.38 8.42L38.38 8.42L38.38 8.42Q38.47 8.64 38.47 8.99L38.47 8.99L38.47 13.24L38.47 13.24Q38.47 13.94 37.88 14.29L37.88 14.29L37.88 14.29Q37.39 14.60 36.72 14.76L36.72 14.76L36.72 14.76Q36.04 14.92 35.24 14.92L35.24 14.92L35.24 14.92Q34.48 14.92 33.84 14.76L33.84 14.76L33.84 14.76Q33.21 14.59 32.75 14.24L32.75 14.24L32.75 14.24Q32.28 13.89 32.03 13.34L32.03 13.34L32.03 13.34Q31.78 12.78 31.78 12.00L31.78 12.00ZM42.35 6.57L42.35 14.69L42.35 14.69Q42.20 14.71 41.90 14.76L41.90 14.76L41.90 14.76Q41.59 14.81 41.29 14.81L41.29 14.81L41.29 14.81Q40.98 14.81 40.73 14.77L40.73 14.77L40.73 14.77Q40.49 14.73 40.32 14.60L40.32 14.60L40.32 14.60Q40.15 14.48 40.06 14.26L40.06 14.26L40.06 14.26Q39.97 14.04 39.97 13.69L39.97 13.69L39.97 5.57L39.97 5.57Q40.12 5.54 40.43 5.50L40.43 5.50L40.43 5.50Q40.73 5.45 41.03 5.45L41.03 5.45L41.03 5.45Q41.34 5.45 41.59 5.49L41.59 5.49L41.59 5.49Q41.83 5.53 42 5.66L42 5.66L42 5.66Q42.17 5.78 42.26 6.00L42.26 6.00L42.26 6.00Q42.35 6.22 42.35 6.57L42.35 6.57ZM46.23 10.25L46.23 12.36L46.23 12.36Q46.23 12.73 46.46 12.88L46.46 12.88L46.46 12.88Q46.69 13.03 47.11 13.03L47.11 13.03L47.11 13.03Q47.32 13.03 47.54 13.00L47.54 13.00L47.54 13.00Q47.77 12.96 47.94 12.91L47.94 12.91L47.94 12.91Q48.06 13.06 48.15 13.25L48.15 13.25L48.15 13.25Q48.24 13.44 48.24 13.71L48.24 13.71L48.24 13.71Q48.24 14.24 47.85 14.57L47.85 14.57L47.85 14.57Q47.45 14.91 46.44 14.91L46.44 14.91L46.44 14.91Q45.21 14.91 44.54 14.35L44.54 14.35L44.54 14.35Q43.88 13.79 43.88 12.53L43.88 12.53L43.88 6.54L43.88 6.54Q44.03 6.50 44.32 6.45L44.32 6.45L44.32 6.45Q44.60 6.40 44.93 6.40L44.93 6.40L44.93 6.40Q45.54 6.40 45.89 6.62L45.89 6.62L45.89 6.62Q46.23 6.83 46.23 7.53L46.23 7.53L46.23 8.43L48.06 8.43L48.06 8.43Q48.15 8.58 48.22 8.81L48.22 8.81L48.22 8.81Q48.30 9.04 48.30 9.32L48.30 9.32L48.30 9.32Q48.30 9.81 48.08 10.03L48.08 10.03L48.08 10.03Q47.87 10.25 47.50 10.25L47.50 10.25L46.23 10.25Z"></path></g><!----><!----></svg>